# xmcd
#
# Track frame offsets:
#  150
#  20776
#  37949
#  56016
#  74298
#  98164
#  114626
#  137550
#  156855
#  174158
#  193934
#  211241
#  230704
#  248428
#
# Disc length: 3512 seconds
#
# Revision: 3
# Processed by: cddbd v1.5.1PL2 Copyright (c) Steve Scherf et al.
# Submitted via: Collectorz.com_Music_Collector 6.11
#
DISCID=be0db60e
DTITLE=DeLange, Ilse - The Great Escape
DYEAR=2006
DGENRE=Country
TTITLE0=Reach For The Light
TTITLE1=The Lonely One
TTITLE2=The Great Escape
TTITLE3=Was It Love
TTITLE4=I Always Will
TTITLE5=Miss Politician
TTITLE6=Don't You Let Go Of Me
TTITLE7=Carry Hope
TTITLE8=Waterfall
TTITLE9=Far Away
TTITLE10=I Love You
TTITLE11=The Valley
TTITLE12=When
TTITLE13=But Beautiful (With Dashboard Confessional)
EXTD=
EXTT0=
EXTT1=
EXTT2=
EXTT3=
EXTT4=
EXTT5=
EXTT6=
EXTT7=
EXTT8=
EXTT9=
EXTT10=
EXTT11=
EXTT12=
EXTT13=
PLAYORDER=
